<?xml version="1.0"?>
<svg xmlns="http://www.w3.org/2000/svg" height="512px" viewBox="-94 -21 682 682.66669" width="512px"><path d="m223.457031 284.632812-22.546875 48.824219h60.046875v8.777344l22.550781-48.820313h-60.050781zm0 0" fill="#D80027"/><path d="m242.207031 0-246.789062 112.113281v203.128907c0 41.578124 12.871093 84.46875 38.25 127.488281 19.78125 33.535156 47.222656 67.269531 81.554687 100.273437 57.898438 55.667969 126.984375 96.996094 126.984375 96.996094s69.089844-41.328125 126.988281-96.992188c34.335938-33.007812 61.773438-66.742187 81.558594-100.277343 25.378906-43.019531 38.246094-85.910157 38.246094-127.488281v-203.128907zm-18.75 512.933594v-141.824219h-81.269531l118.769531-257.179687v141.832031h81.269531zm0 0" fill="#D80027"/></svg>
